<svg id="Camada_1" data-name="Camada 1" xmlns="http://www.w3.org/2000/svg" viewBox="0 0 267.28 236.58"><title>ninas logo</title><path d="M195.63,42.4c-4.86-3.87-10.86-5.67-18.88-5.67h-.07q-38.46,0-76.93,0H72.66L59,36.78c-10.05,0-20.44.07-30.67-.07h-.43A28.36,28.36,0,0,0,7.76,44.56,26.12,26.12,0,0,0,0,63.05Q0,73,0,83c0,24,0,48.74.12,73.11.07,9.75,4.73,17.31,13.46,21.86A46.66,46.66,0,0,0,24,181.34c1.83.45,3.71.92,5.65,1.49l.74.21v15.9c0,10.16,0,20.66,0,31,0,2.68.89,4.84,2.41,5.91a4.52,4.52,0,0,0,4.28.39,11.1,11.1,0,0,0,3.68-2.77q8.47-8.44,16.94-16.92C68.41,205.86,79.45,194.82,90.38,184a9.35,9.35,0,0,1,6-2.48c17.61-.09,35.5-.1,52.81-.1l27.87,0a35.59,35.59,0,0,0,7.94-.62c13.14-3.11,21-13.42,21-27.57.08-27.59.08-56.45,0-88.22C206,55.5,202.53,47.9,195.63,42.4Zm.1,112c0,9.58-5.84,15.86-15.57,16.8-1.47.14-2.95.16-4.21.16H158.72c-21.24,0-43.22,0-64.82-.06h-.08a11.81,11.81,0,0,0-9.19,3.77C74.92,185,64.93,195,55.27,204.58l-9.68,9.65c-.56.57-1.15,1.11-1.9,1.8l-1.35,1.23-1.73,1.61v-16.4q0-12.33,0-24.65c0-4.71-1.45-6.21-6.18-6.42-1.24-.06-2.47-.07-3.71-.09-1.94,0-3.95-.05-5.94-.23a15.42,15.42,0,0,1-14.44-14.44c-.13-1.44-.26-3-.26-4.55v-.64c0-27.92,0-56.79,0-85.19a29.45,29.45,0,0,1,.83-7.73c2-7.13,7.49-11.18,15.84-11.69.54,0,1.08,0,1.62,0H177.19c8.38,0,13.86,3,16.77,9.26a19.12,19.12,0,0,1,1.72,7.69C195.78,91.35,195.8,121,195.73,154.41Z"/><path d="M239.08,0H155.92c-22.49,0-45.75,0-68.62,0C78.36.1,71.15,4,65.86,11.67c-1,1.5-1.88,3.86-1.53,5.49.27,1.24,2.14,2.8,3.72,3.47,1.83.77,3.74.06,5-1.87,3.84-6,9.31-8.61,17.71-8.61h.15c54.35.2,100.09.27,146.62,0h.22c6.19,0,11,1.73,14.39,5.13s5.1,8.51,5,14.7c-.26,13.78-.21,27.8-.15,41.36,0,5.78.05,11.56.05,17.33q0,4.35,0,8.68c0,6.5,0,13.22,0,19.83-.07,10.69-6.81,17.4-17.59,17.51h-5.51c-6,0-7.43,1.43-7.45,7.27,0,6.66,0,13.32,0,20v13.66c0,.81-.06,1.62-.13,2.49q0,.63-.09,1.35l-.1,1.74-1.48-.93-.69-.42a6.21,6.21,0,0,1-.76-.51c-2.17-1.81-3.8-2.48-5.1-2.48a4.51,4.51,0,0,0-3.34,1.76c-2,2.2-1.49,5.29,1.43,8.25q5.19,5.24,10.43,10.44c2.21,2.19,4.11,3.31,6.79,2.14,2.27-1,3.14-2.7,3.13-6.08,0-7.95,0-15.91,0-23.86V145.38l.89-.12c1.22-.18,2.39-.31,3.51-.44a42,42,0,0,0,6.37-1c12.24-3.3,19.88-13.54,19.93-26.72.14-33.24.13-62.44,0-89.27C267.09,11.46,255.54,0,239.08,0Z"/></svg>