<svg id="Camada_1" data-name="Camada 1" xmlns="http://www.w3.org/2000/svg" viewBox="0 0 283.52 283.46"><title>ninas logo</title><path d="M275.9,63.94H259.71V62.15c0-.93,0-1.8,0-2.63,0-1.69,0-3.16,0-4.62-.18-4.78-2.49-7-7.27-7l-4.46,0c-4.27-.05-8.68-.1-13,.07a139.08,139.08,0,0,1-47.79-6.23c-10.49-3.26-21.41-2.31-32.47,2.85A67,67,0,0,0,148.37,48c-1,.6-2,1.21-3,1.79l-1.54.88-1.4-2.41c-.3-.52-.56-1-.84-1.45C124.12,17.56,98,1.82,64,0c-2.71-.14-4.76.42-6.1,1.67s-2.06,3.36-2.08,6.18c0,4,0,8,0,11.89,0,1.75,0,3.51,0,5.27V47.85H46.93c-5.51,0-10.72,0-16,0-4.35,0-6.62,2.27-6.73,6.67,0,1.64,0,3.3,0,5,0,.83,0,1.68,0,2.57v1.79H8.64c-6.7,0-8.63,2-8.64,8.83v86.06Q0,213,0,267.06c0,6.21,2.07,8.41,7.93,8.41H118.53l.46,1.1c2.8,6.7,3.09,6.89,10.48,6.89h7.18q9.47,0,18.94,0c5.73,0,7.14-1.08,8.92-6.73l.39-1.26H276c5.51,0,7.55-2.05,7.56-7.55q0-98.22,0-196.45C283.51,66,281.44,64,275.9,63.94ZM151.35,61.41c10-8.56,20.86-11.17,32.24-7.75a162.07,162.07,0,0,0,50.56,6.73c2.43-.06,4.85,0,7.41,0h5.49V231.2l-1.83,0c-3.63-.07-7.32,0-10.89,0-2.22,0-4.46.05-6.72.05a111.58,111.58,0,0,1-23.48-2c-3.16-.68-6.33-1.51-9.4-2.3-4.27-1.11-8.69-2.26-13.06-3a43.21,43.21,0,0,0-28.26,4.66,17.08,17.08,0,0,1-1.83.84,2.61,2.61,0,0,1-1.42.07l-.45-.06-1.61-.16V197.7c0-42.19,0-85.82-.07-128.74A9.08,9.08,0,0,1,151.35,61.41ZM68.57,12.82l2,.22c19.28,2.14,36,10.59,49.58,25.11a92.53,92.53,0,0,1,8.23,10.67c5.13,7.38,7.47,15.48,7.39,25.5-.29,33.49-.25,67.55-.21,100.48q0,17.73,0,35.46v5.21l-3,1.75-1-1.21c-7.14-8.91-16.15-16.13-27.55-22.08a87,87,0,0,0-33.87-10l-1.65-.14ZM36.72,60.67H55.84V186.54c0,7.29,1.92,9.24,9.35,9.5,20.18.71,38,8.65,53.09,23.59a3.61,3.61,0,0,1,.71,1.08,1.79,1.79,0,0,0,.12.24l1.47,2.65h-3c-1.43,0-2.86,0-4.24-.11a40.7,40.7,0,0,0-8.53.22c-5.12.87-10.3,2.14-15.31,3.36-2.46.6-5,1.22-7.53,1.79-9,2-18.16,2.35-27.17,2.35-2.1,0-4.18,0-6.26,0-3.26,0-6.64-.06-10,0l-1.81,0ZM271.05,263.21H160.28c-6,0-7.38,1-9.14,6.64l-.4,1.25h-18.1l-.25-1.49c-.8-4.83-3.35-6.48-10.08-6.48h-.2c-25.62.12-51.67.11-76.86.09H12.75V76.7H24.16V234.78c0,1,0,2,0,2.92.19,3.76,2,5.68,5.3,5.71,2.85,0,5.69.08,8.54.13,19.17.32,39,.66,57.86-5.51,15.14-4.95,28.41-1.71,39.44,9.62,2.83,2.91,4.88,4.2,6.65,4.2h0c1.78,0,3.83-1.33,6.64-4.29,10.52-11,23.31-14.35,38-9.84,14.28,4.38,30.14,6.31,48.5,5.93,2.88-.06,5.81,0,8.63,0s5.71,0,8.54,0c5.34-.11,7.33-2.16,7.34-7.57,0-11.26,0-22.71,0-33.78V76.4h7.67c.46,0,.89,0,1.36.1l.66.06,1.64.14Z"/></svg>