<svg id="Camada_1" data-name="Camada 1" xmlns="http://www.w3.org/2000/svg" viewBox="0 0 393.46 276.46"><title>ninas logo</title><path d="M375.11,0c-17,.41-34.13.32-50.72.23Q313.77.18,303.15.17H17.86C5.74.18.08,5.8,0,17.88v.57C0,25.39,0,32.54,0,39.56c.07,6.78,2.8,11.56,8.13,14.19a30.35,30.35,0,0,0,7.11,2.07c1.35.29,2.87.61,4.43,1l2.61.69v209.9c0,7.77,1.28,9,9.11,9H181.32c1,0,8-.12,14.71-.24h.69c8.48-.15,15.61-.28,16.8-.28H361.74c8.64,0,9.25-.6,9.25-9.14V56l4.7-.54c.86-.1,1.45-.17,2-.22,10.7-1,15.49-6.14,15.55-16.77,0-2.19,0-4.44-.08-6.62a133.78,133.78,0,0,1,.19-13.7,16.51,16.51,0,0,0-4.11-12.92C386,1.73,381-.14,375.11,0ZM359.77,265.13H33.35V55.5H359.77ZM382.15,44.31h-371V10.5h371Z"/><path d="M150.79,232c25.28-9,43-32.45,44-58.39.17-4.19-.26-6.76-1.29-7.84s-3.49-1.57-7.55-1.57H134.39V153.94q0-6.25,0-12.52v-.26c0-9.87,0-20.07,0-30.09,0-2.82-.69-5-1.89-6.2a5.59,5.59,0,0,0-4.06-1.35h-.15a56.88,56.88,0,0,0-10.43.92c-26.36,5.25-43.72,20.28-51.61,44.68-7.7,23.78-2.77,45.74,14.63,65.25C98.08,233.67,126.18,240.77,150.79,232ZM119.25,115.17h0l4-.74.19,4c0,.61.06,1.22.1,1.82.08,1.34.16,2.73.16,4.15q0,9.17,0,18.31,0,12.59,0,25.15c0,5.36,1.67,7,7.08,7,11.53,0,22.67,0,34.47,0h18.33l-.46,3.92c-1.43,11.94-8.08,23.84-18.26,32.66s-23,13.85-35.27,13.85h-1c-28.88-.63-53.13-23.4-55.21-51.84C71.33,145.56,91.06,120.49,119.25,115.17Z"/><path d="M149.14,114v8.11c0,6.58,0,13.16,0,19.74,0,6.87,1.26,8.08,8.27,8.11,11.18.06,22.55,0,33.55,0h9.54l3.34,0h.3c3.43,0,7,.06,10.4-.17,4.34-.29,5.78-1.83,5.72-6.12a79.24,79.24,0,0,0-1-10.59C215,103,186.66,78.47,156.24,78.47H156c-5.22,0-6.83,1.55-6.88,6.57-.06,6.74,0,13.55,0,20.13C149.13,108.11,149.14,111.05,149.14,114Zm11-23.14h3.5c19.92,0,43.7,23.85,44.69,44.77l.17,3.66H160.1Z"/><path d="M247,132.5c21.27.13,43.75.13,66.84,0a7.08,7.08,0,0,0,5.14-2,4.84,4.84,0,0,0,1.4-3.47c-.09-3.22-2.65-5.15-6.87-5.17-7.85,0-15.87,0-23,0H270.84c-7.73,0-15.73,0-23.59,0-6.45,0-6.5,3.92-6.52,5.2a5.15,5.15,0,0,0,1.26,3.81C243,131.93,244.76,132.49,247,132.5Z"/><path d="M248.16,174.92c21.69,0,43.42,0,64.6,0,2.77,0,5-.75,6.34-2.1a4.39,4.39,0,0,0,1.25-3.33c-.07-3.22-2.9-5.23-7.38-5.26-7.37,0-14.87,0-22.13,0H261l-12.63,0c-7.61,0-7.64,3.44-7.66,5.27a4.87,4.87,0,0,0,1.2,3.61c1.16,1.17,3.37,1.81,6.23,1.82Z"/><path d="M313.38,206.43c-21.44-.06-43.53-.06-65.67,0-6.19,0-7,2.81-7,5.25,0,2.19.74,5.11,7.14,5.15,7.9,0,16,0,23.2,0h3c2.28,0,4.56,0,6.84,0h9.55c7.08,0,15.1,0,23,0,2,0,6.76-.55,6.89-5.11a4.47,4.47,0,0,0-1.21-3.33A8.08,8.08,0,0,0,313.38,206.43Z"/></svg>