<svg id="Camada_1" data-name="Camada 1" xmlns="http://www.w3.org/2000/svg" viewBox="0 0 267.28 276.46"><title>ninas logo</title><path d="M133.63,276.45q-54.94,0-109.89,0c-13.14,0-22-7.31-23.6-20a24,24,0,0,1,1.52-11c11.7-31.58,31.9-56.31,61.17-73.06,9.15-5.24,19.32-8.72,29.06-12.91,3.94-1.7,7.85-1.14,11.64.76a66.62,66.62,0,0,0,33.48,7,61.34,61.34,0,0,0,25.4-6.5,16.94,16.94,0,0,1,14.13-.92c43.38,14.67,72.78,43.77,89.17,86.22a22.09,22.09,0,0,1-20.64,30.33c-37.14.18-74.29.05-111.44.05Zm-.4-10.36h62c15.85,0,31.69.06,47.54,0,11.37-.06,17-8.08,12.88-18.55-14.75-37.79-41.59-63.17-79.47-77.21a12.5,12.5,0,0,0-9.77.22c-21.64,9.23-43.26,9.1-65,.15-2.57-1.06-6.12-1.52-8.65-.65-39.41,13.63-66.66,40-81.37,79-1.1,2.91-.6,7,.49,10.05,2.09,5.88,7.45,7,13.08,7Z"/><path d="M212.75,80.24c-.77,41.82-33.06,77.13-77.49,78.2-45.74,1.09-82-35.21-80.9-82C55.33,35.85,88.71,1,132,.2,176.14-.57,212.18,33.85,212.75,80.24Zm-148-.75c.47,39.54,33.05,71,74.29,68.21,32-2.17,63.44-29.47,63.23-69.11-.21-37.44-32-68.29-69.18-67.74C95.4,11.41,64.14,42.8,64.74,79.49Z"/></svg>