<svg id="Camada_1" data-name="Camada 1" xmlns="http://www.w3.org/2000/svg" viewBox="0 0 327.15 282.84"><title>ninas logo</title><path d="M327,26.2a27.69,27.69,0,0,0-2.33-11.54c-4-8.26-11.11-12.28-21.86-12.28h0c-68.1.05-137.34.05-204.3.05H24.15c-.47,0-.95,0-1.43.07s-1.14.07-1.73.07A19.63,19.63,0,0,0,6.9,8.63,23.45,23.45,0,0,0,0,25.21c.15,41,.13,82.6.12,122.87q0,27.88,0,55.76a24.3,24.3,0,0,0,.52,5.51c2.63,10.94,11.11,17.22,23.28,17.23q36,0,72,0h35.6l-.17,1.66c-.06.51-.1.95-.14,1.34-.08.78-.14,1.39-.23,2A83.82,83.82,0,0,1,113,271.82c-2.94,3.68-2.2,6-1.39,7.44,1.38,2.44,3.56,3.58,6.85,3.58h0c29.63-.11,60.14-.11,93.27,0,3.58.06,5.73-1,7-3.36s.84-4.67-1.44-8l-.68-1A142,142,0,0,1,206.91,255a65.46,65.46,0,0,1-7.55-26.87l-.09-1.58h6.56l28.07,0c22.67,0,46.1-.07,69.15.09h.2a24.18,24.18,0,0,0,17.29-6.72c4.35-4.34,6.63-10.25,6.61-17.1-.09-30.77-.09-62.06-.1-92.32C327.05,82.88,327.05,54.31,327,26.2ZM199.62,267.85l1.38,2.28H129.64l1.32-2.26a95.19,95.19,0,0,0,12.94-39.79l.13-1.36h42.3l.16,1.33C188.29,243.21,192.59,256.23,199.62,267.85Zm115.05-66.18c0,9.29-3,12.27-12.28,12.27H25c-9.59,0-12.52-2.9-12.52-12.43q0-87.12,0-174.24c0-9.41,3.08-12.44,12.67-12.44h277c9.37,0,12.53,3.17,12.53,12.59Z"/><path d="M294.3,104l-.91-.42L275,94.86C259.51,87.57,243.52,80,227.81,72.58a10.43,10.43,0,0,0-4.54-1.1,10.14,10.14,0,0,0-4.37,1q-31.38,14.84-62.8,29.62l-5.26,2.48c-3.46,1.63-4.86,3.47-4.82,6.36s1.46,4.68,4.94,6.31c2.74,1.29,5.47,2.6,8.21,3.9,5.11,2.45,10.4,5,15.67,7.3,3.25,1.44,4.57,3.46,4.54,7-.13,13.23-.14,27.44,0,43.44a7.25,7.25,0,0,0,1.92,5.28,6,6,0,0,0,4.5,1.59c5-.1,5.8-4.39,5.8-6.94,0-3.39,0-6.77,0-10.16,0-10.39.08-21.14-.14-31.69-.1-4.63,1.51-7.18,5.75-9.07,8.51-3.81,17-8,25.26-12.1l2.39-1.18a8,8,0,0,0,4.45-4.65,5.91,5.91,0,0,0-.87-4.82c-2.46-3.93-6.58-3-9.61-1.55-3.86,1.87-7.7,3.76-11.55,5.64-5.62,2.75-11.42,5.6-17.17,8.34-2,1-4.41,1.89-6.3,1.2-3.28-1.21-6.41-2.72-9.72-4.32-1.3-.63-2.62-1.27-4-1.9l-2.36-1.11,2.14-1.49,1-.73a9,9,0,0,1,1.58-1L187,101.42c10.69-5,21.74-10.19,32.56-15.38a8.42,8.42,0,0,1,7.93.14q13.22,6.27,26.46,12.48l19.51,9.2a13,13,0,0,1,2.1,1.33c.34.25.7.51,1.1.78l2.19,1.48-13.3,6.28c-13.51,6.39-26.26,12.42-39.31,18.41a8.07,8.07,0,0,1-6.87-.56c-4.81-3.16-9.08-3.15-13.43,0a3.93,3.93,0,0,1-1.23.57l-.28.1-.45.6c-.57.75-1.35,1.77-1.33,2.32a4.31,4.31,0,0,0,1.37,3c2.85,1.53,5.86,2.92,8.78,4.26,2.12,1,4.31,2,6.44,3a8.5,8.5,0,0,0,8.09,0c6-2.89,12.14-5.74,18.08-8.49l3-1.39c.87-.4,1.73-.72,2.72-1.1l1.53-.59,1.93-.76.12,2.07c0,.64.05,1.21.07,1.72a17.45,17.45,0,0,0,.17,2.27c1,5.74-2.53,8-5.69,9.29-4,1.65-7.93,3.55-11.76,5.39-3.38,1.62-6.88,3.3-10.4,4.82a10.21,10.21,0,0,1-7.32,0c-4.55-1.87-9-4-13.71-6.22l-3.57-1.69c0,.69,0,1.37,0,2,0,3.67,0,7.13.13,10.5a3.28,3.28,0,0,0,1.46,1.78l1.57.8a133.29,133.29,0,0,0,14.32,6.6,10.6,10.6,0,0,0,7.06-.09c6-2.61,11.94-5.44,17.73-8.19,5.41-2.56,11-5.21,16.58-7.68,4.41-2,6.25-5,6.16-10.06-.05-2.5,0-5,0-7.48,0-2.86,0-5.82-.05-8.71-.07-2.73,1-4.39,3.6-5.55,6.12-2.74,12.29-5.63,18.27-8.42l4.7-2.2c4.22-2,6.81-3.37,6.73-7.41C300.57,107,298.19,105.76,294.3,104Z"/><path d="M75.8,158c-5.66-.19-11.36-.28-17-.28s-11.21.09-16.76.27c-7.59.25-12.93,6-12.7,13.76.2,7.23,5.79,12.33,13.58,12.39,3.63,0,7.26,0,10.88,0q5,0,9.91,0c3.71,0,7.42,0,11.13,0,7.88-.06,13.56-5.3,13.8-12.74A13.12,13.12,0,0,0,75.8,158Zm-1.63,18.33c-3.62,0-7.23,0-10.85,0H50.1q-3.14,0-6.26,0c-1.6,0-6.44-.08-6.45-5.19a5,5,0,0,1,1.32-3.65c1.35-1.35,3.28-1.53,5.09-1.52h1.77c9.35,0,19,0,28.53,0h.07a6.64,6.64,0,0,1,4.89,1.65,5,5,0,0,1,1.38,3.73C80.42,173.13,79.59,176.23,74.17,176.28Z"/><path d="M118,177.48v-8.69c0-29.24,0-59.47,0-89.21v-.2c0-1.29,0-3.07-.56-3.78-1-1.28-2.67-2.37-3.61-2.37h-.05c-.86,0-2.34,1.16-3.59,2.73a5.77,5.77,0,0,0-.22,2.41c0,.29,0,.57,0,.85q0,19.26,0,38.52v51.88c0,1,0,2,0,3,0,2.35,0,4.79,0,7.18.09,3.45,2,4,3.52,4.2,1.64.16,3.62-.11,4.43-3.74a9.36,9.36,0,0,0,.1-2C118,178,118,177.74,118,177.48Z"/><path d="M34.57,80.79H59.05l6.33,0c5.68,0,11.56,0,17.33-.1a7.5,7.5,0,0,0,4.64-1.49,4.48,4.48,0,0,0,.7-3.35,6.5,6.5,0,0,0-4.17-2.81c-6-.29-12.12-.25-18-.21l-6.37,0-6.91,0c-6,0-12.24,0-18.35.06A5.48,5.48,0,0,0,30,74.46a3.4,3.4,0,0,0-.63,2.88C29.7,79.41,30.72,80.78,34.57,80.79Z"/><path d="M34.62,102.72c5.09,0,10.27,0,15.28,0H62.77c5.21,0,10.43,0,15.64,0,2.25,0,3.9-.49,4.77-1.38A3.36,3.36,0,0,0,84,98.79c0-2.65-1.83-4-5.33-4-7.45,0-14.85-.06-22.15-.06-7.47,0-14.83,0-22,.06a6.31,6.31,0,0,0-4,1.18,3.62,3.62,0,0,0-1.19,2.92C29.3,99.9,29.32,102.68,34.62,102.72Z"/><path d="M34,116.75a5.13,5.13,0,0,0-3.7,1.37,3.83,3.83,0,0,0-1,2.83c.08,3.1,2.79,3.79,5.05,3.81,3.38,0,6.83,0,10.17,0h8.86c3.33,0,6.77,0,10.14,0,2.29,0,5-.7,5.19-3.77a3.73,3.73,0,0,0-1-2.72,5.1,5.1,0,0,0-3.69-1.5C54,116.63,44,116.63,34,116.75Z"/></svg>