<svg id="Camada_1" data-name="Camada 1" xmlns="http://www.w3.org/2000/svg" viewBox="0 0 207.79 283.46"><title>ninas logo</title><path d="M0,37.69H85c0-5.61,0-11,0-16.41A21.06,21.06,0,0,1,107,0c10.59.25,19.57,8.59,20.15,19.13.33,6,.06,12,.06,18.44h80.59V283.46H0Zm85,9.87H9.39V274.19H198.26V47.48H113.64a15.32,15.32,0,0,0-.18,1.54c0,8.49.08,17,0,25.47-.14,9.29-6.06,15.32-14.61,15.27-8-.05-14.31-7-13.91-15.51C85.3,65.45,85,56.62,85,47.56ZM118.17,37.5V33.74c0-4.18.22-8.38-.1-12.54-.53-6.87-5.19-11.48-11.35-11.72-5.91-.23-11.43,3.75-12,9.68s-.13,12.12-.13,18.35h9.32v-8.8h9.61V37.5ZM94.48,47.36c0,9.9-.15,19.47.18,29,0,1.32,2.36,3.25,3.94,3.66,3.11.8,5.21-1.49,5.27-5.31.09-7,0-14,0-21V47.36Z"/><path d="M179.31,99.45v9H28.23v-9Z"/><path d="M28.24,137v-9h151v9Z"/><path d="M28.33,156.3H179.26v9H28.33Z"/><path d="M28.23,193.55v-9h151v9Z"/><path d="M179.32,212.92V222h-151v-9.1Z"/><path d="M28.23,250.49v-9.06h132v9.06Z"/></svg>