<svg id="Camada_1" data-name="Camada 1" xmlns="http://www.w3.org/2000/svg" viewBox="0 0 289.18 283.46"><title>ninas logo</title><path d="M62.78,24.7c0-6.11,0-11.76,0-17.4,0-4.88,2-7.36,5.8-7.3C72.1.06,74,2.46,74,7.2c0,5.66,0,11.32,0,17.23H214.84c0-4.64,0-9.26,0-13.89A26.36,26.36,0,0,1,215,5.43c.63-3.16,2.21-5.59,6-5.41,3.57.17,5,2.62,5.19,5.66.28,5,.11,10,.16,14.93,0,1.13.12,2.25.21,3.87,1.58.07,3.08.2,4.58.21,13.37,0,26.76.39,40.11-.11,11.62-.43,18,7.9,18,17.76q-.45,111.84,0,223.66c0,9.61-6.09,17.47-17.49,17.46q-127.2-.07-254.39,0C6.15,283.41,0,277.35,0,266.25Q0,154,0,41.74c0-11.29,5.84-17,17.17-17,13.51-.05,27,0,40.54,0ZM11.46,91.47V264.94c0,6.25.48,6.71,6.89,6.71q126.1,0,252.22,0c6.53,0,7.23-.71,7.24-7.38V91.47Zm266.35-12c0-12.64,0-24.85,0-37.05,0-5-1.33-6.31-6.31-6.32q-19.85,0-39.69,0h-5.51v5.08c0,4.56.09,9.11-.1,13.66-.14,3.37-1.81,5.78-5.49,5.82s-5.32-2.35-5.77-5.64a38,38,0,0,1-.09-5.12c0-4.49,0-9,0-13.56H74c0,5.88,0,11.53,0,17.19,0,4.72-1.88,7.1-5.42,7.17s-5.75-2.54-5.78-7.32c0-5.63,0-11.27,0-17.23-16.17,0-31.79-.06-47.41,0-3.39,0-3.94,2.6-3.93,5.44,0,11.24,0,22.48,0,33.72v4.13Z"/><path d="M104.61,234.33c.66-12.54,1.34-22.61,1.61-32.69a10.9,10.9,0,0,0-2.22-6.43c-6.25-8.1-12.81-16-19.22-23.94-4.36-5.43-3.12-9.53,3.47-11.31,10-2.7,20-5.16,30-8a10.67,10.67,0,0,0,5.51-3.92c5.83-8.57,11.31-17.37,17-26.06,3.83-5.88,8-5.89,11.84,0,5.66,8.68,11.17,17.47,17,26.06a10.13,10.13,0,0,0,5.09,3.86c9.81,2.83,19.71,5.3,29.58,7.9,7.66,2,9,5.81,4.12,11.84-6.34,7.85-12.61,15.77-19.18,23.42a9.83,9.83,0,0,0-2.34,7.75q1,15.3,1.63,30.64c.29,6.46-3.11,8.78-9.19,6.44-9.79-3.76-19.53-7.66-29.39-11.24a10.09,10.09,0,0,0-6.31-.06c-9.47,3.39-18.82,7.11-28.21,10.73C107.33,242.35,104.46,240.34,104.61,234.33Zm-6.69-65c5.32,6.59,9.9,13,15.2,18.63,4.29,4.6,5.45,9.36,4.68,15.47-1,7.48-.88,15.1-1.27,23.14,6.07-2.31,11.74-3.89,16.82-6.55,9-4.7,17.43-4.95,26.45,0,5.1,2.77,10.87,4.28,16.81,6.53-.45-9.91-1-19.11-1.17-28.32a12,12,0,0,1,2.24-6.88c5.56-7.33,11.49-14.39,17.59-21.94-8.88-2.4-17.26-4.87-25.75-6.87a12.71,12.71,0,0,1-8.54-6.23c-4.53-7.39-9.38-14.58-14.39-22.29-5.22,8.07-9.86,15.71-15,23a14.83,14.83,0,0,1-7.18,5.21C115.88,164.78,107.19,166.83,97.92,169.29Z"/></svg>