<svg id="Camada_1" data-name="Camada 1" xmlns="http://www.w3.org/2000/svg" viewBox="0 0 217.49 283.46"><title>ninas logo</title><path d="M208,47.17c-7.35,0-14.33.12-21.31-.06a22.51,22.51,0,0,1-8.25-1.34c-5.59-2.43-8.26-7.16-8.32-13.23-.08-7.55,0-15.11,0-23.11H25.75C15,9.43,9.57,14.84,9.54,25.74c0,16.62,0,33.25,0,49.87V219H0v-3.41C0,198.72.07,42.79,0,25.94,0,15.45,3.87,7.17,13.48,2.41A22.9,22.9,0,0,1,23.23.1Q98.38-.11,173.54.1a8.92,8.92,0,0,1,5.62,2.36q18.06,17.68,35.73,35.76a9.87,9.87,0,0,1,2.5,6.27q.18,106.71.09,213.42c0,12.31-6.76,21.72-17.78,24.63a33.1,33.1,0,0,1-8.39.8c-55.08,0-110.16-.11-165.24.12-14.5.07-23.24-8.67-25.19-18.2a34.27,34.27,0,0,1-.82-6.68C0,240.82,0,223.06,0,205.31a18.9,18.9,0,0,1,.24-2.14H9.54v4c0,16.63.26,33.26-.09,49.88-.27,12.12,7.48,17.1,17.1,17.08q82.11-.18,164.22-.06c11.73,0,17.19-5.48,17.19-17.24V47.17Zm-8.86-9.64c-6.39-6.47-13.09-13.25-19.55-19.81,0,4.5-.05,9.58,0,14.66,0,3,1.41,5.06,4.61,5.12C189.46,37.61,194.75,37.53,199.1,37.53Z"/><path d="M184.26,174.54a13.85,13.85,0,0,1-14.07,14.22,4.48,4.48,0,0,0-4.54,2.58c-3.71,6.46-7.69,12.76-11.33,19.25a5.59,5.59,0,0,0-.16,4.46c2.58,5.36,2.26,11.35-1.23,15.61-3.93,4.77-9.64,6.72-15.14,4.9-5.88-2-9.71-5.94-9.9-12.31-.09-3-1.44-4.3-3.77-5.54-7.58-4-15-8.24-22.65-12.19a5,5,0,0,0-4.12,0c-3.87,2.21-7.83,3-12,1.4a3.82,3.82,0,0,0-4.52.9c-6.22,5.59-12.53,11.07-18.66,16.76A4.92,4.92,0,0,0,61,228.4c1.39,8.54-3.74,16.09-11.81,17.07A14.37,14.37,0,0,1,33,232c-.63-9.35,9.07-16.95,18.16-14a4.8,4.8,0,0,0,5.61-1.24c5.72-5.3,11.6-10.42,17.45-15.56,1.54-1.35,2.22-2.52,1.71-4.88-1.64-7.62,3.77-15.44,10.95-16.47,9.15-1.31,16.13,3.85,16.79,12.72.2,2.73,1.29,4.08,3.63,5.29,7.51,3.89,14.91,8,22.29,12.15a4.16,4.16,0,0,0,4.88,0,14.89,14.89,0,0,1,7-2.12c2.47-.05,3.81-.71,5-2.85,3.51-6.18,7.2-12.27,11-18.31,1.16-1.87,1.54-3.27.28-5.44a13.38,13.38,0,0,1,1.69-15.76,14.05,14.05,0,0,1,15.7-4A14.25,14.25,0,0,1,184.26,174.54Zm-37.92,47.51a5,5,0,0,0-4.36-4.76,4.58,4.58,0,0,0-4.65,4.68,4.42,4.42,0,0,0,4.58,4.68A4.64,4.64,0,0,0,146.34,222.05Zm-99,4.73a4.83,4.83,0,0,0-4.69,4.4,4.68,4.68,0,0,0,4.47,4.91,4.66,4.66,0,0,0,.22-9.31Zm127.38-52.11a4.37,4.37,0,0,0-4.56-4.36,4.56,4.56,0,0,0-4.81,4.52,4.8,4.8,0,0,0,5,4.41A4.48,4.48,0,0,0,174.75,174.67Zm-85,23.61a4.87,4.87,0,0,0,4.7-4.41,4.6,4.6,0,0,0-4.66-4.65c-2.86,0-4.37,1.53-4.58,4.27A4.53,4.53,0,0,0,89.77,198.28Z"/><path d="M47.3,94.11v-9h75.31v9Z"/><path d="M47.47,104h75.21v9.09H47.47Z"/><path d="M122.73,123.07v9H47.4v-9Z"/><path d="M47.3,151V142h75.3V151Z"/><path d="M189,85.11v9H132.42v-9Z"/><path d="M132.43,113.1V104h56.33v9.08Z"/><path d="M188.86,123.05v9.07H132.42v-9.07Z"/><path d="M188.85,142v9.07H132.42V142Z"/><path d="M75.54,47.47v8.88h-47V47.47Z"/><path d="M47.32,37.57V28.63H75.47v8.94Z"/><path d="M28.38,37.56V28.64h9.17v8.92Z"/></svg>