<?xml version="1.0" encoding="utf-8"?>
<!-- Generator: Adobe Illustrator 23.0.1, SVG Export Plug-In . SVG Version: 6.00 Build 0)  -->
<svg version="1.1" id="Camada_1" xmlns="http://www.w3.org/2000/svg" xmlns:xlink="http://www.w3.org/1999/xlink" x="0px" y="0px"
	 viewBox="0 0 238.7 100.1" style="enable-background:new 0 0 238.7 100.1;" xml:space="preserve">
<style type="text/css">
	.st0{fill:#289EB0;}
	.st1{fill:#531C6B;}
	.st2{fill:#5FACBA;}
	.st3{fill:#CF6F35;}
	.st4{fill:#EBC35A;}
	.st5{fill:#C23D58;}
	.st6{fill:#C6525F;}
	.st7{fill:#E8C046;}
	.st8{fill:#E2AB43;}
	.st9{fill:#A5A5CD;}
	.st10{fill:#9C3364;}
	.st11{fill:#7D326D;}
	.st12{fill:#FFFFFF;}
	.st13{fill:#431E58;}
	.st14{fill:url(#SVGID_1_);}
	.st15{fill:url(#);}
	.st16{clip-path:url(#SVGID_3_);fill:#070308;}
	.st17{clip-path:url(#SVGID_3_);fill:#531C6B;}
	.st18{clip-path:url(#SVGID_5_);fill:#070308;}
	.st19{clip-path:url(#SVGID_5_);fill:#531C6B;}
	.st20{clip-path:url(#SVGID_7_);fill:#070308;}
	.st21{clip-path:url(#SVGID_7_);fill:#531C6B;}
	.st22{clip-path:url(#SVGID_7_);fill:#C2C3C9;}
	.st23{clip-path:url(#SVGID_9_);fill:#070308;}
	.st24{clip-path:url(#SVGID_9_);fill:#531C6B;}
	.st25{clip-path:url(#SVGID_11_);fill:#070308;}
	.st26{clip-path:url(#SVGID_11_);fill:#531C6B;}
	.st27{fill:#C69C92;}
	.st28{fill:#61728E;}
	.st29{opacity:0.34;fill:#61728E;}
	.st30{opacity:0.31;fill:#C69C92;}
	.st31{fill:#C65165;}
	.st32{opacity:0.44;fill:#C69C92;}
	.st33{fill:#352325;}
	.st34{opacity:0.19;fill:#352325;}
	.st35{opacity:0.31;fill:#C65165;}
	.st36{opacity:0.49;}
	.st37{opacity:0.51;fill:#C69C92;}
	.st38{fill:#9D7569;}
	.st39{opacity:0.1;fill:#9D7569;}
	.st40{opacity:0.28;fill:#352325;}
	.st41{opacity:0.37;fill:#9D7569;}
	.st42{fill:#DCAE51;}
	.st43{opacity:0.44;fill:#DCAE51;}
	.st44{opacity:0.51;fill:#9D7569;}
	.st45{opacity:0.2;fill:#9D7569;}
	.st46{opacity:0.28;fill:#61728E;}
	.st47{opacity:0.46;fill:#DCAE51;}
	.st48{opacity:0.44;fill:#9D7569;}
	.st49{opacity:0.46;}
	.st50{fill:#3E8C96;}
	.st51{opacity:0.46;fill:#669DD3;}
	.st52{opacity:0.27;fill:#352325;}
	.st53{fill:#E1AC98;}
	.st54{fill:#E0AA97;}
</style>
<g>
	<g>
		<path class="st1" d="M87.91,61.75h-9.54V37.56h9.54V61.75z"/>
	</g>
	<g>
		<path class="st1" d="M113.2,21.15c5.53,0,10.26,1.97,14.21,5.92c3.95,3.95,5.92,8.7,5.92,14.25v20.43h-9.59V41.32
			c0-2.91-1.04-5.4-3.11-7.47c-2.07-2.04-4.55-3.07-7.43-3.07c-2.91,0-5.4,1.02-7.47,3.07c-2.07,2.07-3.11,4.56-3.11,7.47v20.43
			h-9.59V41.32c0-5.56,1.97-10.31,5.92-14.25C102.89,23.12,107.64,21.15,113.2,21.15z"/>
	</g>
	<g>
		<path class="st1" d="M186.91,58.46c-2.76-2.39-4.15-5.4-4.15-9.03h9.41c0,1.18,0.62,2.02,1.86,2.5c0.63,0.26,1.25,0.39,1.86,0.39
			c1.18,0,2.13-0.17,2.85-0.52c0.72-0.35,1.14-0.91,1.25-1.68c0-0.83-0.2-1.44-0.6-1.81c-0.66-0.66-2-1.12-4.02-1.38
			c-4.2-0.46-7.49-1.96-9.85-4.49c-2.1-2.25-3.15-4.85-3.15-7.82c0-3.51,1.15-6.56,3.46-9.16c2.51-2.88,5.79-4.32,9.85-4.32
			c4.03,0,7.36,1.31,9.98,3.93c2.62,2.65,3.93,5.96,3.93,9.93h-9.42c0-2.94-1.5-4.41-4.49-4.41c-2.59,0-3.89,1.34-3.89,4.02
			c0,1.64,1.55,2.65,4.66,3.02c4.95,0.58,8.52,2.32,10.71,5.23c1.5,1.99,2.24,4.41,2.24,7.26c0,3.4-1.33,6.18-3.99,8.36
			c-2.66,2.17-5.84,3.26-9.52,3.26C192.44,61.75,189.44,60.65,186.91,58.46z"/>
	</g>
	<g>
		<path class="st1" d="M92.85,66.72c-0.38,2.04-1.36,3.84-2.92,5.4c-2.07,2.04-4.56,3.07-7.47,3.07c-2.88,0-5.35-1.02-7.43-3.07
			c-2.07-2.07-3.11-4.56-3.11-7.47v-2.91h0.01V41.32c0-5.56-1.97-10.31-5.92-14.25c-3.95-3.94-8.68-5.92-14.21-5.92
			c-5.56,0-10.31,1.97-14.25,5.92c-3.95,3.95-5.92,8.7-5.92,14.25v20.43h9.59V41.32c0-2.91,1.04-5.4,3.11-7.47
			c2.07-2.04,4.56-3.07,7.47-3.07c2.88,0,5.35,1.02,7.43,3.07c2.07,2.07,3.11,4.56,3.11,7.47v2.86l-0.01,20.48
			c0,5.56,1.97,10.31,5.92,14.25c3.95,3.94,8.68,5.92,14.21,5.92c5.56,0,10.31-1.97,14.25-5.92c3.45-3.45,5.39-7.51,5.82-12.19
			H92.85z"/>
	</g>
	<g>
		<path class="st1" d="M172.21,27.15c-3.97-4-8.77-6-14.38-6c-5.59,0-10.35,2-14.3,6c-4,3.94-6,8.71-6,14.3c0,5.59,2,10.37,6,14.34
			c3.94,3.97,8.71,5.96,14.3,5.96c2.02,0,3.91-0.26,5.69-0.77V50.45c-1.68,1.08-3.58,1.62-5.69,1.62c-2.91,0-5.41-1.04-7.52-3.11
			c-2.04-2.1-3.07-4.61-3.07-7.52c0-2.91,1.02-5.41,3.07-7.51c2.1-2.07,4.61-3.11,7.52-3.11c2.94,0,5.46,1.04,7.56,3.11
			c2.07,2.1,3.11,4.61,3.11,7.51c0,0,0,0,0,0l0,0v17.28v3.02h9.67v-20.3C178.17,35.86,176.18,31.1,172.21,27.15z"/>
	</g>
	<g>
		<path class="st2" d="M83.17,30.75c-1.32,0-2.46-0.47-3.4-1.41c-0.93-0.96-1.41-2.1-1.41-3.4c0-1.32,0.47-2.46,1.41-3.4
			c0.93-0.93,2.08-1.41,3.4-1.41c1.3,0,2.43,0.47,3.34,1.41c0.93,0.93,1.4,2.07,1.4,3.39c0,1.3-0.47,2.44-1.4,3.39l0,0
			C85.6,30.28,84.47,30.75,83.17,30.75z"/>
	</g>
</g>
</svg>
