<svg id="Camada_1" data-name="Camada 1" xmlns="http://www.w3.org/2000/svg" viewBox="0 0 238.7 100.1"><defs><style>.cls-1{fill:#fff;}.cls-2{fill:#5facba;}</style></defs><title>ninas logo</title><path class="cls-1" d="M87.91,61.75H78.37V37.56h9.54Z"/><path class="cls-1" d="M113.2,21.15a19.4,19.4,0,0,1,14.21,5.91,19.47,19.47,0,0,1,5.92,14.26V61.75h-9.59V41.32a10.56,10.56,0,0,0-21.12,0V61.75H93V41.32A19.43,19.43,0,0,1,99,27.06,19.42,19.42,0,0,1,113.2,21.15Z"/><path class="cls-1" d="M186.91,58.46a11.43,11.43,0,0,1-4.14-9h9.41a2.56,2.56,0,0,0,1.86,2.5,4.84,4.84,0,0,0,1.85.39,6.62,6.62,0,0,0,2.86-.52A2.14,2.14,0,0,0,200,50.13a2.37,2.37,0,0,0-.61-1.82c-.66-.66-2-1.12-4-1.38q-6.31-.69-9.85-4.49a11.1,11.1,0,0,1-3.15-7.82,13.33,13.33,0,0,1,3.45-9.15,12.44,12.44,0,0,1,9.85-4.32A13.44,13.44,0,0,1,209.59,35h-9.42c0-2.94-1.5-4.4-4.49-4.4q-3.88,0-3.89,4,0,2.46,4.67,3,7.42.85,10.71,5.22a11.77,11.77,0,0,1,2.24,7.26,10.29,10.29,0,0,1-4,8.35,14.58,14.58,0,0,1-9.53,3.27A13.29,13.29,0,0,1,186.91,58.46Z"/><path class="cls-1" d="M92.85,66.72a10.09,10.09,0,0,1-2.92,5.4,10.56,10.56,0,0,1-18-7.47v-2.9h0V41.32A19.46,19.46,0,0,0,66,27.06a19.41,19.41,0,0,0-14.21-5.91,19.46,19.46,0,0,0-14.26,5.91,19.46,19.46,0,0,0-5.91,14.26V61.75h9.59V41.32a10.57,10.57,0,0,1,18-7.48,10.23,10.23,0,0,1,3.11,7.48V64.65A20.2,20.2,0,0,0,82.46,84.82a20.25,20.25,0,0,0,20.08-18.1Z"/><path class="cls-1" d="M172.21,27.15a20.14,20.14,0,0,0-28.68,0,19.35,19.35,0,0,0-6,14.3,19.51,19.51,0,0,0,6,14.34,19.43,19.43,0,0,0,14.3,6,20.16,20.16,0,0,0,5.69-.78V50.45a10.65,10.65,0,0,1-13.21-16.52,10.65,10.65,0,0,1,18.19,7.52h0v20.3h9.67V41.45A19.43,19.43,0,0,0,172.21,27.15Z"/><path class="cls-2" d="M83.17,30.75a4.67,4.67,0,0,1-3.4-1.4,4.74,4.74,0,0,1-1.4-3.4,4.78,4.78,0,0,1,4.8-4.8,4.5,4.5,0,0,1,3.34,1.41A4.64,4.64,0,0,1,87.91,26a4.7,4.7,0,0,1-1.4,3.39h0A4.5,4.5,0,0,1,83.17,30.75Z"/></svg>